<svg width="97" height="41" viewBox="0 0 97 41" xmlns="http://www.w3.org/2000/svg">
    <path d="M59.754 10.729c-.734.449-1.626.674-2.692.674h-5.32V6.242h5.32c1.2 0 2.124.216 2.791.658.667.44.996 1.098.996 1.974 0 .786-.363 1.406-1.095 1.855zm3.62 5.97c-.465-.45-.885-.82-1.26-1.113a7.355 7.355 0 0 0 2.44-.928 6.824 6.824 0 0 0 1.825-1.602 6.98 6.98 0 0 0 1.147-2.126c.266-.787.4-1.62.4-2.497 0-1.619-.362-2.945-1.081-3.98a7.955 7.955 0 0 0-2.74-2.46C62.996 1.382 61.768.96 60.417.723a22.777 22.777 0 0 0-3.916-.352H44.855v22.564h6.873v-.11h.013v-6.289h3.137l5.24 6.4h9.201l-4.087-4.384a124.498 124.498 0 0 0-1.857-1.853zM89.28 14.59c-.244.755-.639 1.347-1.186 1.772-.549.428-1.259.713-2.139.861-.882.143-1.955.22-3.23.22-1.273 0-2.349-.077-3.23-.22-.88-.148-1.594-.433-2.142-.86-.545-.426-.942-1.018-1.187-1.773-.244-.753-.365-1.735-.365-2.95 0-1.216.121-2.197.365-2.95.245-.754.642-1.34 1.187-1.758.548-.413 1.261-.694 2.141-.839.882-.15 1.958-.222 3.23-.222 1.276 0 2.349.073 3.231.222.88.145 1.59.426 2.139.839.547.417.942 1.004 1.186 1.758.246.753.369 1.734.369 2.95 0 1.215-.123 2.197-.369 2.95zM31.298 6.215H42.84C41.763 1.053 36.104.35 36.104.35H24.39v22.567h18.603V17.11H31.298v-3.067h11.696V8.915H31.298v-2.7zm2.134 18.544-4.995 5.262-3.955-4.135c-3.228-2.844-6.846-.006-6.846-.006l7.424 7.706-6.991 7.366 6.904-.018 8.679-9.22c2.69-3.381-.22-6.955-.22-6.955zm28.995 11.197h-4.16v-6.084c-.333-4.33-4.866-4.897-4.866-4.897v15.923h13.854s-.56-4.601-4.828-4.942zm14.067-10.989h-8.278v15.945h13.15v-4.103h-8.277v-2.167h8.277v-3.624h-8.277v-1.902h8.164c-.758-3.653-4.759-4.149-4.759-4.149zM17.091 36.855l.02 4.145H9.547c-1.38 0-2.648-.211-3.818-.633-1.167-.407-2.172-.98-3.02-1.717a7.894 7.894 0 0 1-1.981-2.59C.233 35.05 0 33.965 0 32.795c0-1.173.233-2.236.728-3.216a7.459 7.459 0 0 1 1.98-2.498c.849-.7 1.854-1.24 3.021-1.618 1.17-.378 2.438-.563 3.818-.563h3.63l3.934 4.188H9.547c-.663 0-1.29.089-1.847.285a4.207 4.207 0 0 0-1.473.82 3.589 3.589 0 0 0-1.322 2.819c0 .567.105 1.107.334 1.578.241.471.562.872.971 1.213.426.339.912.599 1.49.778a5.944 5.944 0 0 0 1.847.274h7.544zm35.023 0L52.129 41h-7.574c-1.368 0-2.644-.211-3.81-.633-1.163-.407-2.172-.98-3.024-1.717a8.07 8.07 0 0 1-1.984-2.59c-.485-1.01-.72-2.095-.72-3.265 0-1.173.235-2.236.72-3.216a7.629 7.629 0 0 1 1.984-2.498c.852-.7 1.86-1.24 3.025-1.618 1.165-.378 2.44-.563 3.809-.563h3.637l3.937 4.188h-7.574c-.66 0-1.274.09-1.832.285a4.313 4.313 0 0 0-1.48.82c-.41.333-.731.742-.963 1.224a3.514 3.514 0 0 0-.358 1.595 3.6 3.6 0 0 0 .338 1.578c.234.471.557.872.982 1.213.416.339.903.599 1.481.778a5.857 5.857 0 0 0 1.832.274h7.559zm42.514-4.505c-.878-.716-2.148-1.08-3.828-1.08h-3.246c-.49 0-.856-.087-1.099-.252-.231-.154-.355-.447-.355-.863 0-.415.124-.703.355-.859.243-.155.608-.237 1.1-.237l7.476-.026s-.367-3.827-3.21-4.12h-3.943c-1.033 0-1.914.119-2.67.35-.745.252-1.346.576-1.823 1.015-.465.42-.81.941-1.034 1.556-.231.613-.342 1.293-.342 2.033 0 .69.108 1.308.315 1.869.2.567.506 1.039.934 1.443a4.38 4.38 0 0 0 1.592.922c.637.222 1.413.344 2.294.344h3.25c.506 0 .87.081 1.103.257.228.176.34.464.34.878 0 .411-.112.714-.34.893-.233.186-.597.281-1.103.281h-7.761v4.088h7.435c1.04 0 1.924-.118 2.666-.355.741-.24 1.354-.581 1.827-1.018a3.893 3.893 0 0 0 1.045-1.649c.213-.65.327-1.379.327-2.188 0-1.469-.436-2.555-1.305-3.282zm-72.36-9.434h-6.762V9.084l-.003-2.178c0-3.619 2.883-6.554 6.439-6.554h.324l.003 22.564zm73.774-10.634v-1.28c-.113-3.7-1.223-6.434-3.33-8.202C90.487.934 87.159 0 82.725 0c-4.452 0-7.789.934-10.004 2.8-2.217 1.868-3.323 4.815-3.323 8.84 0 4.048 1.099 7.005 3.309 8.872 2.21 1.866 5.546 2.8 10.018 2.8 4.451 0 7.784-.934 10.003-2.8 2.095-1.766 3.201-4.51 3.314-8.23zM6.787.364h-.325C2.907.364.025 3.3.025 6.92L0 22.916h6.763v-8.683h3.686c2.793 0 5.057-2.305 5.057-5.149H6.763l.024-8.72z" fill="#BD001C" fill-rule="evenodd"/>
</svg>
